Coordinates
version=1
nRows=26
nColumns=24
inDegrees=yes

Units are S.I. units (second, meters, Newtons, ...)
Angles are in degrees.

endheader
time	pelvis_tilt	pelvis_list	pelvis_rotation	pelvis_tx	pelvis_ty	pelvis_tz	hip_flexion_r	hip_adduction_r	hip_rotation_r	knee_angle_r	ankle_angle_r	subtalar_angle_r	mtp_angle_r	hip_flexion_l	hip_adduction_l	hip_rotation_l	knee_angle_l	ankle_angle_l	subtalar_angle_l	mtp_angle_l	lumbar_extension	lumbar_bending	lumbar_rotation
      4.77000000	      7.12325249	     -0.47781548	      9.82962558	      0.31897898	      0.74836632	     -0.11121128	     -2.07400466	      6.25938092	      8.00569884	    -14.37426149	     15.88439555	    -17.21938170	      0.00000000	     12.08562334	     -3.84728460	     -3.92616494	    -67.20532774	     -1.96679933	    -15.86749978	      0.00000000	    -24.95645558	      2.04001857	     -9.33649371
      4.78000000	      6.93385666	     -0.11694347	      9.31028157	      0.32981233	      0.74956668	     -0.11186892	     -3.22844461	      5.79009569	      8.34634984	    -13.65438079	     16.07494799	    -16.83333823	      0.00000000	     13.57889164	     -3.51205013	     -4.99279310	    -66.17829215	      0.10409663	    -15.35797360	      0.00000000	    -24.89895138	      1.34875208	     -8.17611554
      4.79000000	      6.75340334	      0.16133301	      8.77747700	      0.34045901	      0.75050611	     -0.11257006	     -4.28516831	      5.39038314	      8.65955356	    -13.05865351	     16.27131935	    -16.42002338	      0.00000000	     14.99695527	     -3.27209404	     -6.02076653	    -64.86555914	      1.82593803	    -15.12007801	      0.00000000	    -24.86389184	      0.76095114	     -7.05652461
      4.80000000	      6.58450645	      0.36114179	      8.24548696	      0.35094308	      0.75118696	     -0.11331370	     -5.24960053	      5.06513711	      8.97731955	    -12.59825232	     16.48247623	    -16.02763851	      0.00000000	     16.32587335	     -3.10901737	     -6.96107338	    -63.26454204	      3.18336272	    -15.17006577	      0.00000000	    -24.84673891	      0.26426490	     -5.94382206
      4.81000000	      6.43639765	      0.47528153	      7.72769869	      0.36127960	      0.75161265	     -0.11409885	     -6.13840439	      4.82714517	      9.28244069	    -12.26675467	     16.66553207	    -15.67686089	      0.00000000	     17.55611732	     -3.05771180	     -7.84001954	    -61.39454318	      4.27883689	    -15.46731541	      0.00000000	    -24.86403162	     -0.12302012	     -4.95423587
      4.82000000	      6.31550520	      0.54120809	      7.24550410	      0.37153450	      0.75184530	     -0.11496327	     -7.00041222	      4.64161108	      9.59549094	    -12.01826867	     16.85733910	    -15.32958244	      0.00000000	     18.64348318	     -3.03557125	     -8.58845161	    -59.21888375	      5.12991939	    -15.82405538	      0.00000000	    -24.91774658	     -0.43404570	     -4.05125611
      4.83000000	      6.21890879	      0.58146972	      6.78991698	      0.38173047	      0.75190266	     -0.11590459	     -7.83554856	      4.48348600	      9.90549033	    -11.85864656	     17.06171716	    -14.99785499	      0.00000000	     19.56611303	     -3.01537745	     -9.22373568	    -56.71583248	      5.72777071	    -16.30279176	      0.00000000	    -25.01213868	     -0.69448718	     -3.25052039
      4.84000000	      6.18432234	      0.65121765	      6.40342198	      0.39191358	      0.75187554	     -0.11698694	     -8.71752208	      4.29404175	     10.07856292	    -11.74337131	     17.28084338	    -14.58305802	      0.00000000	     20.24016237	     -2.87823166	     -9.64492871	    -53.81942298	      5.96540186	    -17.09675916	      0.00000000	    -25.19409394	     -0.95286298	     -2.63458306
      4.85000000	      6.08980175	      0.65779579	      6.02278327	      0.40212531	      0.75158184	     -0.11810781	     -9.51542657	      4.16732835	     10.34428607	    -11.66446272	     17.49589493	    -14.30737952	      0.00000000	     20.83078063	     -2.79892295	     -9.99844603	    -50.62399691	      6.12743491	    -17.64564250	      0.00000000	    -25.29867846	     -1.14355115	     -2.03844429
      4.86000000	      6.06684204	      0.68035345	      5.74215167	      0.41240121	      0.75122572	     -0.11941796	    -10.41950690	      4.02409480	     10.43436403	    -11.55007915	     17.63043683	    -13.95438296	      0.00000000	     21.13139053	     -2.57758760	    -10.04539130	    -47.00750836	      6.05537991	    -18.41235449	      0.00000000	    -25.49350791	     -1.29775373	     -1.69112307
      4.87000000	      6.02299328	      0.67427640	      5.47711594	      0.42280905	      0.75067671	     -0.12080175	    -11.33944617	      3.89601633	     10.51821499	    -11.37869928	     17.80223736	    -13.64090678	      0.00000000	     21.25250098	     -2.36446847	     -9.99839772	    -43.04778039	      5.96047688	    -18.76313203	      0.00000000	    -25.64174791	     -1.41013751	     -1.35893764
      4.88000000	      6.00461918	      0.62210064	      5.25165023	      0.43334893	      0.74997866	     -0.12229456	    -12.31242930	      3.80667140	     10.53813945	    -11.17536636	     17.94846782	    -13.28370121	      0.00000000	     21.12476838	     -2.12062359	     -9.68455404	    -38.71427432	      5.79383101	    -18.90623806	      0.00000000	    -25.79942958	     -1.45328084	     -1.10201198
      4.89000000	      5.98847544	      0.54201946	      5.02223452	      0.44406546	      0.74909331	     -0.12384437	    -13.30452039	      3.73202431	     10.59475215	    -10.97150915	     18.08138462	    -12.95972712	      0.00000000	     20.75932030	     -1.87557338	     -9.18960975	    -34.03576377	      5.68454472	    -18.62320918	      0.00000000	    -25.93415693	     -1.46402051	     -0.90461896
      4.90000000	      6.01248780	      0.36004736	      4.81599827	      0.45502110	      0.74803676	     -0.12552931	    -14.39937967	      3.72736892	     10.49900792	    -10.66388630	     18.28226591	    -12.35290776	      0.00000000	     20.11812911	     -1.64964123	     -8.20377270	    -29.03230724	      5.21639271	    -18.59081533	      0.00000000	    -26.05853168	     -1.34447875	     -0.67768061
      4.91000000	      6.06024308	      0.09003434	      4.56844657	      0.46624177	      0.74675602	     -0.12718777	    -15.55962833	      3.79612928	     10.62980816	    -10.32408214	     18.34604342	    -11.95492482	      0.00000000	     19.28639697	     -1.60538752	     -7.15015109	    -23.91235729	      5.08059167	    -17.70332002	      0.00000000	    -26.15576984	     -1.14982757	     -0.44099497
      4.92000000	      6.09732267	     -0.26044289	      4.24906024	      0.47775463	      0.74523151	     -0.12889173	    -16.72665870	      3.88958048	     10.81403143	     -9.97899025	     18.43638780	    -11.42364090	      0.00000000	     18.22296809	     -1.62781414	     -5.44254121	    -18.58077687	      4.36195661	    -17.63668911	      0.00000000	    -26.17488900	     -0.88992767	     -0.06139261
      4.93000000	      6.16126304	     -0.77460732	      3.88622469	      0.48953434	      0.74345076	     -0.13058079	    -17.93679208	      4.12204646	     11.24412640	     -9.63992130	     18.44735968	    -11.02698499	      0.00000000	     17.05851315	     -1.95562632	     -3.40363633	    -13.41329797	      3.72133465	    -17.47439653	      0.00000000	    -26.16847259	     -0.46666086	      0.38870568
      4.94000000	      6.19302638	     -1.38210305	      3.41747006	      0.50161256	      0.74139915	     -0.13217889	    -19.10757521	      4.39719077	     11.96855680	     -9.36149185	     18.35134825	    -10.78147932	      0.00000000	     15.91300896	     -2.56201560	     -1.22899013	     -8.62283498	      3.16737637	    -17.40348007	      0.00000000	    -26.06485307	     -0.00150125	      0.97597130
      4.95000000	      6.18721852	     -2.05237261	      2.86888190	      0.51388722	      0.73915951	     -0.13372030	    -20.19382289	      4.69110507	     12.90827171	     -9.20524993	     18.17907457	    -10.66577564	      0.00000000	     14.94940553	     -3.40693466	      0.70337182	     -4.53292983	      2.89048349	    -17.09853678	      0.00000000	    -25.89785917	      0.49642418	      1.65101351
      4.96000000	      6.06828765	     -2.69880061	      2.26111016	      0.52629082	      0.73679136	     -0.13526199	    -21.01367198	      4.91979103	     13.66341971	     -9.33388617	     18.19436678	    -10.19410294	      0.00000000	     14.36852973	     -4.31237037	      1.87903005	     -1.38176421	      3.17044429	    -16.00789666	      0.00000000	    -25.60308233	      0.94685988	      2.38989500
      4.97000000	      5.98072398	     -3.14637783	      1.57585631	      0.53886424	      0.73456091	     -0.13686114	    -21.81543139	      4.90741576	     14.48873401	     -9.60777856	     18.13409113	     -9.79517733	      0.00000000	     13.82307607	     -5.01085989	      2.72569363	      1.07101869	      3.40116830	    -15.17239779	      0.00000000	    -25.35824422	      1.16856098	      3.06894631
      4.98000000	      5.92298393	     -3.37046116	      0.86009361	      0.55160420	      0.73251057	     -0.13854319	    -22.68845952	      4.66845253	     15.79436237	     -9.87384886	     17.57289329	    -10.33122608	      0.00000000	     13.29241769	     -5.43132267	      3.42434437	      2.84323453	      3.36356779	    -14.86346226	      0.00000000	    -25.15649230	      1.14262593	      3.66459989
      4.99000000	      5.77613946	     -3.39051893	      0.13090416	      0.56442302	      0.73056043	     -0.14040120	    -23.17478370	      4.22826559	     16.38978320	    -10.63677302	     17.44417585	    -10.01543448	      0.00000000	     13.00196745	     -5.53915883	      3.67755977	      3.79985018	      3.23076743	    -14.58922490	      0.00000000	    -24.85993019	      0.91810864	      4.20642680
      5.00000000	      5.74940689	     -3.14790804	     -0.54288271	      0.57742758	      0.72890365	     -0.14249997	    -23.68290627	      3.55188100	     16.71314982	    -11.58928970	     17.20801587	     -9.72831695	      0.00000000	     12.54120649	     -5.29887569	      4.37700432	      4.27385176	      2.27797563	    -15.72313540	      0.00000000	    -24.68638821	      0.44963257	      4.55146698
      5.01000000	      5.66619437	     -2.67710726	     -1.14976255	      0.59055199	      0.72740156	     -0.14483717	    -23.93588903	      2.70216529	     16.67819450	    -12.86584430	     16.98467037	     -9.25053496	      0.00000000	     12.23230774	     -4.72812642	      5.17971046	      4.12967816	      0.65045705	    -17.59400760	      0.00000000	    -24.42458894	     -0.21812493	      4.75441631
      5.02000000	      5.67691101	     -1.94640213	     -1.68732349	      0.60374353	      0.72623907	     -0.14738438	    -24.06436835	      1.65048644	     16.27991974	    -14.49957651	     16.67331979	     -8.72353660	      0.00000000	     11.94233489	     -3.78942186	      5.90041250	      3.40754720	     -1.43242211	    -19.85758737	      0.00000000	    -24.26766818	     -1.13567350	      4.80122708
